<?xml version="1.0" encoding="UTF-8"?>
<svg version="1.1" xmlns="http://www.w3.org/2000/svg" width="500" height="500">
<path d="M0 0 C0.68964844 0.60328125 1.37929688 1.2065625 2.08984375 1.828125 C3.01603516 2.57835938 3.01603516 2.57835938 3.9609375 3.34375 C13.07735458 11.3840644 17.90423538 24.66917194 18.83984375 36.515625 C19.72701631 52.02471572 14.90949184 64.85594445 5.08984375 76.828125 C-4.7442671 87.35124999 -16.84019899 91.71224398 -30.91015625 92.828125 C-35.53225779 92.81123547 -39.53212338 92.28746929 -43.91015625 90.828125 C-44.98540819 93.48041312 -46.00471776 96.11180954 -46.91015625 98.828125 C-47.57015625 98.828125 -48.23015625 98.828125 -48.91015625 98.828125 C-49.02101563 99.38717529 -49.131875 99.94622559 -49.24609375 100.5222168 C-50.01500661 103.19221015 -51.16063106 105.30736007 -52.53515625 107.72265625 C-53.07301758 108.67172852 -53.61087891 109.62080078 -54.16503906 110.59863281 C-54.74092773 111.60249023 -55.31681641 112.60634766 -55.91015625 113.640625 C-56.78559082 115.17928223 -56.78559082 115.17928223 -57.67871094 116.74902344 C-61.45148315 123.35603639 -65.29013054 129.91995827 -69.28125 136.39770508 C-70.7965895 138.87210643 -71.98756815 141.06036071 -72.91015625 143.828125 C-73.57015625 143.828125 -74.23015625 143.828125 -74.91015625 143.828125 C-75.01972656 144.3953125 -75.12929688 144.9625 -75.2421875 145.546875 C-76.00508483 148.15232553 -77.14293113 150.03721929 -78.59765625 152.328125 C-81.48548024 157.0217005 -83.96205751 161.83180455 -86.38671875 166.77734375 C-88.76173026 171.53345654 -91.33031229 176.18074652 -93.91015625 180.828125 C-94.57015625 180.828125 -95.23015625 180.828125 -95.91015625 180.828125 C-96.01070312 181.364375 -96.11125 181.900625 -96.21484375 182.453125 C-97.4189957 186.56618335 -99.69377529 190.19885134 -101.73046875 193.953125 C-103.13100608 196.68435505 -103.13100608 196.68435505 -102.58984375 199.203125 C-102.25339844 200.0075 -102.25339844 200.0075 -101.91015625 200.828125 C-101.39710938 200.59738281 -100.8840625 200.36664063 -100.35546875 200.12890625 C-93.20223676 197.08215929 -85.87372176 195.07805454 -78.38671875 193.0546875 C-73.50954159 191.73356999 -68.69216001 190.24236484 -63.87109375 188.73046875 C-60.15287598 187.59734434 -56.40592773 186.60049258 -52.640625 185.63671875 C-50.38636223 184.96914737 -48.24677629 184.21515028 -46.0546875 183.375 C-42.22509392 181.91429192 -38.35736427 180.7517801 -34.41015625 179.640625 C-23.12468646 176.40749041 -12.0264178 172.59437449 -0.91015625 168.828125 C-0.78680908 168.16570801 -0.66346191 167.50329102 -0.53637695 166.82080078 C1.24278853 157.55152643 3.97660463 148.27213727 10.08984375 140.828125 C10.74984375 140.828125 11.40984375 140.828125 12.08984375 140.828125 C12.49589844 139.92707031 12.49589844 139.92707031 12.91015625 139.0078125 C17.36165438 130.782859 27.94846737 126.66925126 36.296875 123.6796875 C50.57744552 120.47354499 66.16203064 121.8217084 78.71484375 129.453125 C90.92569835 138.34581259 99.47139814 149.711107 102.08984375 164.828125 C102.36685877 167.77266718 102.42461994 170.68425605 102.40234375 173.640625 C102.3967041 174.43033691 102.39106445 175.22004883 102.38525391 176.03369141 C102.13281889 188.23804982 97.84577408 198.69422951 91.08984375 208.828125 C90.42984375 208.828125 89.76984375 208.828125 89.08984375 208.828125 C89.08984375 209.488125 89.08984375 210.148125 89.08984375 210.828125 C88.42984375 210.828125 87.76984375 210.828125 87.08984375 210.828125 C87.08984375 211.488125 87.08984375 212.148125 87.08984375 212.828125 C75.00619627 223.65703707 60.1387301 226.61018744 44.48681641 226.01611328 C36.08691151 225.35733076 28.38693762 221.83437261 21.08984375 217.828125 C21.08984375 217.168125 21.08984375 216.508125 21.08984375 215.828125 C20.38859375 215.621875 19.68734375 215.415625 18.96484375 215.203125 C15.66996089 213.62731146 14.00829855 211.75477329 11.71484375 208.97265625 C10.1035518 207.55901629 10.1035518 207.55901629 7.80908203 208.16137695 C5.15843225 208.81130733 2.56363754 209.54338381 -0.04296875 210.3515625 C-1.01492188 210.650625 -1.986875 210.9496875 -2.98828125 211.2578125 C-3.99375 211.56976563 -4.99921875 211.88171875 -6.03515625 212.203125 C-11.88641492 214.01532585 -17.730233 215.79926933 -23.65234375 217.3671875 C-27.46713176 218.39087438 -31.10649695 219.6021442 -34.78222656 221.03759766 C-39.37701267 222.74456386 -44.0964063 224.09290978 -48.78515625 225.515625 C-51.08469046 226.21726756 -53.38416785 226.91909632 -55.68359375 227.62109375 C-57.45621582 228.1612915 -57.45621582 228.1612915 -59.26464844 228.71240234 C-62.95421905 229.8416106 -66.63971655 230.98327611 -70.32421875 232.12890625 C-71.51160645 232.49733643 -72.69899414 232.8657666 -73.92236328 233.24536133 C-76.21821623 233.95809462 -78.51348102 234.67272572 -80.80810547 235.3894043 C-81.84209473 235.70949463 -82.87608398 236.02958496 -83.94140625 236.359375 C-85.31135742 236.78573242 -85.31135742 236.78573242 -86.70898438 237.22070312 C-88.91015625 237.828125 -88.91015625 237.828125 -90.91015625 237.828125 C-90.9359375 238.62734375 -90.96171875 239.4265625 -90.98828125 240.25 C-91.91325332 258.16082274 -99.26879019 271.30359227 -111.91015625 283.828125 C-115.52199836 286.828125 -115.52199836 286.828125 -117.91015625 286.828125 C-117.91015625 287.488125 -117.91015625 288.148125 -117.91015625 288.828125 C-125.74690776 293.12166439 -133.14960102 296.06075609 -141.91015625 297.828125 C-142.72613281 298.01246094 -143.54210937 298.19679688 -144.3828125 298.38671875 C-154.13969469 300.09078009 -163.50185522 298.51440934 -172.91015625 295.828125 C-173.60367188 295.64636719 -174.2971875 295.46460938 -175.01171875 295.27734375 C-179.90301821 293.74751179 -184.10546459 290.98375636 -188.41015625 288.265625 C-189.04687256 287.86520996 -189.68358887 287.46479492 -190.33959961 287.05224609 C-191.90183098 286.03463215 -193.41156884 284.93733226 -194.91015625 283.828125 C-194.91015625 283.168125 -194.91015625 282.508125 -194.91015625 281.828125 C-196.23015625 281.168125 -197.55015625 280.508125 -198.91015625 279.828125 C-198.91015625 279.168125 -198.91015625 278.508125 -198.91015625 277.828125 C-199.57015625 277.828125 -200.23015625 277.828125 -200.91015625 277.828125 C-200.91015625 277.168125 -200.91015625 276.508125 -200.91015625 275.828125 C-201.57015625 275.828125 -202.23015625 275.828125 -202.91015625 275.828125 C-213.90924414 261.4297605 -218.08051872 244.80557793 -216.19189453 226.85742188 C-214.34292512 213.53971499 -207.60685452 200.92627796 -198.91015625 190.828125 C-198.25015625 190.828125 -197.59015625 190.828125 -196.91015625 190.828125 C-196.91015625 190.168125 -196.91015625 189.508125 -196.91015625 188.828125 C-195.01171875 187.1015625 -195.01171875 187.1015625 -192.53515625 185.203125 C-191.72304687 184.57148438 -190.9109375 183.93984375 -190.07421875 183.2890625 C-187.91015625 181.828125 -187.91015625 181.828125 -185.91015625 181.828125 C-185.91015625 181.168125 -185.91015625 180.508125 -185.91015625 179.828125 C-185.25015625 179.828125 -184.59015625 179.828125 -183.91015625 179.828125 C-184.84832836 175.47141851 -185.79048439 171.11559693 -186.73608398 166.76049805 C-187.05614747 165.28383788 -187.37518685 163.80695531 -187.69311523 162.32983398 C-189.33945594 154.68407217 -191.0592331 147.09248704 -193.17993164 139.5612793 C-194.65166272 134.05274388 -195.79086528 128.46710668 -196.97265625 122.890625 C-197.35647461 121.11268555 -197.35647461 121.11268555 -197.74804688 119.29882812 C-199.34028966 111.83698082 -200.72773038 104.365766 -201.91015625 96.828125 C-203.29847656 96.60189453 -203.29847656 96.60189453 -204.71484375 96.37109375 C-218.45353278 94.03652434 -229.7010897 87.57752368 -238.09765625 76.515625 C-247.17412776 63.55926914 -249.22387916 50.35088677 -247.91015625 34.828125 C-245.4501231 21.57046132 -237.13927101 9.48493003 -226.0859375 1.88671875 C-216.15529423 -4.20390625 -207.1629028 -6.74754995 -195.53515625 -6.671875 C-194.52509521 -6.66687988 -193.51503418 -6.66188477 -192.47436523 -6.65673828 C-180.83254699 -6.38462356 -172.75524956 -2.54278609 -163.91015625 4.828125 C-162.64171875 5.694375 -162.64171875 5.694375 -161.34765625 6.578125 C-150.37218125 16.7093327 -145.18342768 31.08451856 -144.47265625 45.765625 C-144.94874264 58.35086516 -150.03885688 69.52117595 -156.91015625 79.828125 C-157.57015625 79.828125 -158.23015625 79.828125 -158.91015625 79.828125 C-158.91015625 80.488125 -158.91015625 81.148125 -158.91015625 81.828125 C-159.57015625 81.828125 -160.23015625 81.828125 -160.91015625 81.828125 C-160.91015625 82.488125 -160.91015625 83.148125 -160.91015625 83.828125 C-161.57015625 83.828125 -162.23015625 83.828125 -162.91015625 83.828125 C-162.91015625 84.488125 -162.91015625 85.148125 -162.91015625 85.828125 C-163.57015625 85.828125 -164.23015625 85.828125 -164.91015625 85.828125 C-164.14438486 89.43338578 -163.37158115 93.03710647 -162.59765625 96.640625 C-162.38431641 97.64544922 -162.17097656 98.65027344 -161.95117188 99.68554688 C-160.90453344 104.54382379 -159.79660387 109.35812327 -158.45703125 114.14453125 C-156.53829974 121.0214773 -155.01893727 127.984991 -153.47265625 134.953125 C-152.85939524 137.70342141 -152.24449795 140.4533494 -151.62890625 143.203125 C-151.48006485 143.86877472 -151.33122345 144.53442444 -151.1778717 145.22024536 C-149.71564519 151.73801256 -148.14958093 158.22843237 -146.5390625 164.7109375 C-145.91015625 167.828125 -145.91015625 167.828125 -145.91015625 172.828125 C-142.61015625 173.488125 -139.31015625 174.148125 -135.91015625 174.828125 C-135.68070312 174.1784375 -135.45125 173.52875 -135.21484375 172.859375 C-133.47417377 168.81518368 -131.26832833 165.11753765 -129.03515625 161.328125 C-128.03844864 159.62275446 -127.04237774 157.91701166 -126.046875 156.2109375 C-125.53044434 155.32696289 -125.01401367 154.44298828 -124.48193359 153.53222656 C-121.90879271 149.10536908 -119.38005849 144.65336819 -116.84765625 140.203125 C-112.82746814 133.15023126 -108.7584932 126.12933613 -104.62866211 119.14013672 C-101.52595438 113.88654053 -98.46158958 108.61165004 -95.41015625 103.328125 C-90.97639173 95.65372741 -86.50393082 88.00290758 -82.00390625 80.3671875 C-81.47023438 79.44534668 -81.47023438 79.44534668 -80.92578125 78.50488281 C-79.91015625 76.828125 -79.91015625 76.828125 -78.00390625 74.2265625 C-76.60668041 71.80016406 -76.60668041 71.80016406 -77.5625 68.88671875 C-78.22958984 67.37271484 -78.22958984 67.37271484 -78.91015625 65.828125 C-79.32394531 64.84972656 -79.73773438 63.87132812 -80.1640625 62.86328125 C-80.59589844 61.88230469 -81.02773438 60.90132813 -81.47265625 59.890625 C-86.78119156 47.18136694 -85.87885029 33.63765452 -81.22265625 20.828125 C-75.15866916 6.52160731 -64.97270583 -1.85581107 -51.59765625 -8.921875 C-34.13328852 -14.84199965 -14.27310703 -11.94024419 0 0 Z M-167.91015625 212.828125 C-168.461875 213.21355469 -169.01359375 213.59898437 -169.58203125 213.99609375 C-174.94249582 218.09605304 -178.42371872 223.26302591 -179.91015625 229.828125 C-180.87317364 239.19565783 -178.97942358 246.13762349 -173.22265625 253.578125 C-168.57699555 258.5112647 -164.09666009 261.4375213 -157.27734375 262.2734375 C-148.05298622 262.54851774 -142.17908019 261.50138514 -135.22265625 255.515625 C-134.07796875 254.1853125 -134.07796875 254.1853125 -132.91015625 252.828125 C-132.245 252.05662109 -132.245 252.05662109 -131.56640625 251.26953125 C-127.06336129 245.60145431 -125.55370884 239.58890319 -125.97265625 232.390625 C-126.73153658 227.02154668 -129.26851829 222.4972932 -131.91015625 217.828125 C-132.57015625 217.828125 -133.23015625 217.828125 -133.91015625 217.828125 C-133.91015625 217.168125 -133.91015625 216.508125 -133.91015625 215.828125 C-135.29373716 214.5343625 -135.29373716 214.5343625 -137.09765625 213.328125 C-137.68933594 212.9053125 -138.28101563 212.4825 -138.890625 212.046875 C-147.68957574 206.73686991 -159.50078749 206.79617124 -167.91015625 212.828125 Z " fill="#0DEA9A" transform="translate(347.91015625,90.171875)"/>
<path d="M0 0 C5.71026382 4.08921823 13.11157394 9.58472182 15.375 16.375 C14.715 16.705 14.055 17.035 13.375 17.375 C12.385 15.89 12.385 15.89 11.375 14.375 C9.89 14.87 9.89 14.87 8.375 15.375 C7.88 11.91 7.88 11.91 7.375 8.375 C6.385 8.375 5.395 8.375 4.375 8.375 C2.6875 7 2.6875 7 1.375 5.375 C1.375 4.715 1.375 4.055 1.375 3.375 C0.715 3.375 0.055 3.375 -0.625 3.375 C-0.625 2.715 -0.625 2.055 -0.625 1.375 C-5.08 0.385 -5.08 0.385 -9.625 -0.625 C-9.625 -1.285 -9.625 -1.945 -9.625 -2.625 C-15.21142761 -3.78727688 -20.69447434 -3.84429446 -26.375 -3.875 C-27.78265625 -3.9059375 -27.78265625 -3.9059375 -29.21875 -3.9375 C-36.94330542 -3.9801771 -44.09733043 -2.97677971 -50.625 1.375 C-51.615 1.375 -52.605 1.375 -53.625 1.375 C-53.625 2.035 -53.625 2.695 -53.625 3.375 C-55.935 3.705 -58.245 4.035 -60.625 4.375 C-44.52520189 -10.1148183 -18.11555804 -11.01325809 0 0 Z " fill="#37D799" transform="translate(426.625,219.625)"/>
<path d="M0 0 C0.66 0.33 1.32 0.66 2 1 C-1.13347921 9.50765864 -1.13347921 9.50765864 -4.75 11.5625 C-5.4925 11.706875 -6.235 11.85125 -7 12 C-6.938125 13.2375 -6.87625 14.475 -6.8125 15.75 C-6.80728267 18.69257586 -6.9210548 19.85646327 -8.375 22.5 C-10 24 -10 24 -12 24 C-14.22781626 38.56037058 -14.04145134 52.34529184 -13 67 C-19.30170648 57.54744028 -18.59053106 44.78747939 -17 34 C-14.06990383 20.8795201 -8.10624298 10.58035684 0 0 Z " fill="#44DE9E" transform="translate(149,281)"/>
<path d="M0 0 C6.83184465 8.52520786 9.58423142 20.37055103 9.3125 31.171875 C8.00016334 43.04852177 3.57575627 53.13636559 -3 63 C-3.66 63 -4.32 63 -5 63 C-5 63.66 -5 64.32 -5 65 C-5.66 65 -6.32 65 -7 65 C-7 65.66 -7 66.32 -7 67 C-7.66 67 -8.32 67 -9 67 C-9 67.66 -9 68.32 -9 69 C-9.66 69 -10.32 69 -11 69 C-11 68.01 -11 67.02 -11 66 C-10.34 66 -9.68 66 -9 66 C-9 64.68 -9 63.36 -9 62 C-8.01 61.505 -8.01 61.505 -7 61 C-5.86649466 58.98330173 -5.86649466 58.98330173 -5 57 C-4.67 57.66 -4.34 58.32 -4 59 C-3.814375 58.0409375 -3.814375 58.0409375 -3.625 57.0625 C-3.41875 56.381875 -3.2125 55.70125 -3 55 C-2.01 54.505 -2.01 54.505 -1 54 C-0.27840576 52.35636866 0.39351421 50.68949614 1 49 C1.66 49 2.32 49 3 49 C6.09987674 34.46010196 6.95497413 22.59573786 3 8 C2.34 8 1.68 8 1 8 C0.67 5.36 0.34 2.72 0 0 Z " fill="#3DD99E" transform="translate(194,107)"/>
<path d="M0 0 C7.41766659 9.10066657 6.88913984 21.8487045 6 33 C4.6937 41.86106833 0.86094569 52.95583356 -6 59 C-6 57.02 -6 55.04 -6 53 C-5.01 53 -4.02 53 -3 53 C-3 51.68 -3 50.36 -3 49 C-2.34 49 -1.68 49 -1 49 C-0.87625 48.278125 -0.7525 47.55625 -0.625 46.8125 C0 44 0 44 1 41.625 C5.31194091 30.3061551 3.92134207 15.2411806 0 4 C0 2.68 0 1.36 0 0 Z " fill="#3AD49B" transform="translate(444,240)"/>
<path d="M0 0 C2.76164995 2.76164995 2.74994969 5.11130195 3.4375 8.9375 C4.29552587 13.53789765 5.21571173 18.05740502 6.5 22.5625 C7.70467014 26.83010806 8.76907893 31.11252982 9.75 35.4375 C10.01296875 36.59121094 10.2759375 37.74492187 10.546875 38.93359375 C10.96535408 41.76554268 10.96369709 43.34983301 10 46 C8 44 8 44 7.875 41.375 C7.936875 40.199375 7.936875 40.199375 8 39 C7.01 39 6.02 39 5 39 C5.01160156 38.16855469 5.02320313 37.33710938 5.03515625 36.48046875 C5.04417969 35.39378906 5.05320313 34.30710938 5.0625 33.1875 C5.07410156 32.10855469 5.08570313 31.02960938 5.09765625 29.91796875 C5.13624766 26.93487831 5.13624766 26.93487831 4 24 C3.01 23.67 2.02 23.34 1 23 C1.01160156 22.09378906 1.02320313 21.18757813 1.03515625 20.25390625 C1.08588915 13.40496536 0.93601269 6.786092 0 0 Z M3 39 C3.66 39 4.32 39 5 39 C4.67 39.99 4.34 40.98 4 42 C3.67 41.01 3.34 40.02 3 39 Z " fill="#49E0A8" transform="translate(183,182)"/>
<path d="M0 0 C1.65 0 3.3 0 5 0 C5 0.99 5 1.98 5 3 C7.97 3.33 10.94 3.66 14 4 C14 4.66 14 5.32 14 6 C14.84304687 6.13277344 15.68609375 6.26554687 16.5546875 6.40234375 C17.65039062 6.57894531 18.74609375 6.75554687 19.875 6.9375 C20.96554688 7.11152344 22.05609375 7.28554688 23.1796875 7.46484375 C26 8 26 8 28 9 C29.8863912 9.084915 31.77578515 9.107193 33.6640625 9.09765625 C35.34628906 9.09282227 35.34628906 9.09282227 37.0625 9.08789062 C38.8259375 9.07532227 38.8259375 9.07532227 40.625 9.0625 C41.80835938 9.05798828 42.99171875 9.05347656 44.2109375 9.04882812 C47.14067507 9.03701467 50.07031272 9.02054258 53 9 C53 9.33 53 9.66 53 10 C36.03210968 13.80842428 18.59539726 12.54288525 3.5 3.375 C2.3095712 2.61953557 1.13369094 1.83820766 0 1 C0 0.67 0 0.34 0 0 Z " fill="#6ADFB5" transform="translate(159,377)"/>
<path d="M0 0 C1.33836305 4.01508916 0.36510316 6.04120083 -1 10 C-1.495 10.7425 -1.99 11.485 -2.5 12.25 C-4.84133204 16.54244207 -5.2858363 21.20250033 -6 26 C-6.66 26 -7.32 26 -8 26 C-8 26.66 -8 27.32 -8 28 C-10.51716282 28.84610515 -13.03779273 29.67696767 -15.5625 30.5 C-16.26697266 30.73847656 -16.97144531 30.97695313 -17.69726562 31.22265625 C-22.32122977 32.71425759 -26.14302111 33.25529455 -31 33 C-28.27563014 31.57320551 -25.59233094 30.45176588 -22.671875 29.4921875 C-21.87265625 29.22792969 -21.0734375 28.96367187 -20.25 28.69140625 C-19.425 28.42199219 -18.6 28.15257812 -17.75 27.875 C-16.48929687 27.45927734 -16.48929687 27.45927734 -15.203125 27.03515625 C-13.13631215 26.35404747 -11.06827438 25.67665767 -9 25 C-8.88760986 24.33492432 -8.77521973 23.66984863 -8.65942383 22.98461914 C-7.22922326 14.74199034 -4.67046961 7.00570441 0 0 Z " fill="#48DA9F" transform="translate(356,234)"/>
<path d="M0 0 C2.76111909 2.33865278 3.4921026 4.09228179 4.125 7.625 C4.49097593 10.59940649 4.49097593 10.59940649 6 13 C6.23653523 15.52596259 6.42173692 18.03107207 6.5625 20.5625 C6.60568359 21.27341797 6.64886719 21.98433594 6.69335938 22.71679688 C6.79971777 24.47761912 6.90038846 26.2387832 7 28 C0.5 32 0.5 32 -4 32 C-4.33 33.32 -4.66 34.64 -5 36 C-5.99 36 -6.98 36 -8 36 C-8 35.34 -8 34.68 -8 34 C-6.1015625 32.2734375 -6.1015625 32.2734375 -3.625 30.375 C-2.81289062 29.74335938 -2.00078125 29.11171875 -1.1640625 28.4609375 C1 27 1 27 3 27 C3 26.34 3 25.68 3 25 C3.66 25 4.32 25 5 25 C4.84853516 24.31373535 4.69707031 23.6274707 4.54101562 22.92041016 C3.8585212 19.82241044 3.17922155 16.72371884 2.5 13.625 C2.26152344 12.54476563 2.02304688 11.46453125 1.77734375 10.3515625 C1.55175781 9.3203125 1.32617188 8.2890625 1.09375 7.2265625 C0.88427734 6.27346191 0.67480469 5.32036133 0.45898438 4.33837891 C0 2 0 2 0 0 Z " fill="#40DEA0" transform="translate(159,245)"/>
<path d="M0 0 C4.05440901 0.66317471 7.57752977 1.94853948 11.375 3.5 C15.99895671 5.32124061 20.05059027 6.65469234 25 7 C25.07347656 8.03060547 25.07347656 8.03060547 25.1484375 9.08203125 C25.22320312 9.98308594 25.29796875 10.88414062 25.375 11.8125 C25.44460937 12.70582031 25.51421875 13.59914062 25.5859375 14.51953125 C25.86645036 17.24398499 25.86645036 17.24398499 28 20 C28.99080825 25.05312207 29.08986071 29.87793956 29 35 C28.67 35 28.34 35 28 35 C23.59225513 17.14350797 23.59225513 17.14350797 23 9 C21.7315625 8.814375 21.7315625 8.814375 20.4375 8.625 C12.91663541 7.25757007 6.71520427 4.54000708 0 1 C0 0.67 0 0.34 0 0 Z " fill="#55D7A6" transform="translate(123,178)"/>
<path d="M0 0 C0.5775 0.37125 1.155 0.7425 1.75 1.125 C0.079375 1.434375 0.079375 1.434375 -1.625 1.75 C-5.51599195 2.74128301 -5.51599195 2.74128301 -6.6875 6.25 C-6.873125 7.19875 -7.05875 8.1475 -7.25 9.125 C-8.9 8.795 -10.55 8.465 -12.25 8.125 C-12.37375 8.66125 -12.4975 9.1975 -12.625 9.75 C-13.37206016 12.5888286 -14.30303364 15.34723202 -15.25 18.125 C-16.57 17.465 -17.89 16.805 -19.25 16.125 C-19.58 17.115 -19.91 18.105 -20.25 19.125 C-20.91 18.795 -21.57 18.465 -22.25 18.125 C-18.41421679 12.40251041 -7.87285527 -3.06166594 0 0 Z " fill="#2DDE9B" transform="translate(293.25,84.875)"/>
<path d="M0 0 C0.99 0.33 1.98 0.66 3 1 C1.8803014 2.00593243 0.7540588 3.0045849 -0.375 4 C-1.31472656 4.8353125 -1.31472656 4.8353125 -2.2734375 5.6875 C-4 7 -4 7 -6 7 C-6 7.66 -6 8.32 -6 9 C-7.86967605 9.98929461 -9.74601378 10.96600469 -11.625 11.9375 C-12.66914063 12.48277344 -13.71328125 13.02804687 -14.7890625 13.58984375 C-17.92416918 14.96669717 -20.61454632 15.59842216 -24 16 C-23.67 15.01 -23.34 14.02 -23 13 C-22.360625 12.855625 -21.72125 12.71125 -21.0625 12.5625 C-18.79688294 12.19895007 -18.79688294 12.19895007 -17.75 9.9375 C-17.5025 9.298125 -17.255 8.65875 -17 8 C-15.906875 8.020625 -14.81375 8.04125 -13.6875 8.0625 C-10.05615809 8.18544452 -10.05615809 8.18544452 -7 7 C-7 6.34 -7 5.68 -7 5 C-5.35666496 3.96210419 -3.68756133 2.96432076 -2 2 C-1.34 1.34 -0.68 0.68 0 0 Z " fill="#60DDB0" transform="translate(236,370)"/>
<path d="M0 0 C-0.66 0.66 -1.32 1.32 -2 2 C-3.03125 1.34 -4.0625 0.68 -5.125 0 C-11.62777596 -3.2398172 -19.74559973 -3.42025638 -26.609375 -1.12890625 C-28.98768239 0.00998957 -28.98768239 0.00998957 -32 2 C-32.99 2.495 -32.99 2.495 -34 3 C-34 1.68 -34 0.36 -34 -1 C-33.34 -1 -32.68 -1 -32 -1 C-32 -1.66 -32 -2.32 -32 -3 C-20.73089302 -6.60611423 -10.0842474 -6.50596607 0 0 Z " fill="#5CE0AF" transform="translate(212,302)"/>
<path d="M0 0 C2.00720923 0.28674418 4.0085944 0.61866701 6 1 C6 1.33 6 1.66 6 2 C5.06317383 2.24907104 5.06317383 2.24907104 4.10742188 2.50317383 C1.23715829 3.26880761 -1.63141304 4.04060923 -4.5 4.8125 C-5.97339844 5.20405273 -5.97339844 5.20405273 -7.4765625 5.60351562 C-13.12861523 7.12956986 -18.53818431 8.89930166 -24 11 C-25.99118113 11.59296203 -27.99048456 12.1600022 -30 12.6875 C-31.423125 13.06455078 -31.423125 13.06455078 -32.875 13.44921875 C-33.57625 13.63097656 -34.2775 13.81273437 -35 14 C-35 13.34 -35 12.68 -35 12 C-33.68 12 -32.36 12 -31 12 C-31 11.34 -31 10.68 -31 10 C-30.28714844 9.80664062 -29.57429688 9.61328125 -28.83984375 9.4140625 C-23.54986672 7.97587225 -18.26663967 6.52147368 -13 5 C-13 4.67 -13 4.34 -13 4 C-12.14535156 3.79503906 -11.29070312 3.59007812 -10.41015625 3.37890625 C-9.30542969 3.10949219 -8.20070313 2.84007812 -7.0625 2.5625 C-5.96035156 2.29566406 -4.85820312 2.02882813 -3.72265625 1.75390625 C-1.10578746 1.27004275 -1.10578746 1.27004275 0 0 Z " fill="#41DAA0" transform="translate(335,301)"/>
<path d="M0 0 C0.99 0.495 0.99 0.495 2 1 C2 1.66 2 2.32 2 3 C2.61875 3.04125 3.2375 3.0825 3.875 3.125 C4.57625 3.41375 5.2775 3.7025 6 4 C7.25 7.0625 7.25 7.0625 8 10 C7.01 10.495 7.01 10.495 6 11 C6.55312735 15.02992782 7.1558062 19.02022924 8 23 C4.78111589 21.39055795 4.1486806 18.06834276 2.875 14.875 C2.59785156 14.22273437 2.32070313 13.57046875 2.03515625 12.8984375 C0.24554454 8.45526361 -0.29042997 4.86154517 0 0 Z " fill="#21E398" transform="translate(264,137)"/>
<path d="M0 0 C0.91058531 3.07322544 1.08886184 5.80097361 1 9 C0.34 9 -0.32 9 -1 9 C-1 9.66 -1 10.32 -1 11 C-1.66 11 -2.32 11 -3 11 C-3 13.31 -3 15.62 -3 18 C-3.66 18 -4.32 18 -5 18 C-4.97679687 18.83144531 -4.95359375 19.66289063 -4.9296875 20.51953125 C-4.91164063 21.60621094 -4.89359375 22.69289063 -4.875 23.8125 C-4.85179687 24.89144531 -4.82859375 25.97039062 -4.8046875 27.08203125 C-5 30 -5 30 -7 33 C-7.41233546 20.95064168 -5.41154125 10.82308251 0 0 Z " fill="#47DBA0" transform="translate(270,104)"/>
<path d="M0 0 C0.33 0 0.66 0 1 0 C0.41617454 11.87111764 -4.97288144 20.66426036 -12 30 C-12.66 28.68 -13.32 27.36 -14 26 C-13.01 25.67 -12.02 25.34 -11 25 C-9.77030122 21.48809191 -9.77030122 21.48809191 -9 18 C-8.01 18 -7.02 18 -6 18 C-5.81824219 17.45472656 -5.63648438 16.90945312 -5.44921875 16.34765625 C-3.6328125 10.8984375 -1.81640625 5.44921875 0 0 Z " fill="#43D9A1" transform="translate(365,137)"/>
<path d="M0 0 C0.495 0.70125 0.99 1.4025 1.5 2.125 C4.60598918 5.69688756 8.06894364 8.38185504 12 11 C12.56203125 11.38542969 13.1240625 11.77085937 13.703125 12.16796875 C17.33204009 13.48252473 20.92601263 13.20744086 24.75 13.125 C25.54277344 13.11597656 26.33554688 13.10695313 27.15234375 13.09765625 C29.10169281 13.07417012 31.05088575 13.03830137 33 13 C33 13.66 33 14.32 33 15 C30.14557247 15.05437005 27.29219924 15.09384974 24.4375 15.125 C23.63763672 15.14175781 22.83777344 15.15851563 22.01367188 15.17578125 C16.93499665 15.21723982 12.81188094 14.64056075 8 13 C8 12.01 8 11.02 8 10 C6.68 9.67 5.36 9.34 4 9 C4 8.34 4 7.68 4 7 C2.35 7.33 0.7 7.66 -1 8 C-0.67 5.36 -0.34 2.72 0 0 Z " fill="#43DA9E" transform="translate(171,338)"/>
<path d="M0 0 C7.70648546 9.61663998 9.45838492 22.03106051 9 34 C8.34 34 7.68 34 7 34 C6.87882813 32.7934375 6.75765625 31.586875 6.6328125 30.34375 C6.46384119 28.72913529 6.29455344 27.11455368 6.125 25.5 C6.04636719 24.70851562 5.96773437 23.91703125 5.88671875 23.1015625 C5.33344911 17.90933976 4.3751765 13.03846179 3 8 C2.34 8 1.68 8 1 8 C0.67 5.36 0.34 2.72 0 0 Z " fill="#55D7A5" transform="translate(194,107)"/>
<path d="M0 0 C-6.09327957 3.08406779 -12.0235138 4.51738645 -18.75 5.3125 C-19.47050537 5.40063965 -20.19101074 5.4887793 -20.93334961 5.57958984 C-25.15681694 6.02159763 -28.85269626 5.90640758 -33 5 C-33 4.67 -33 4.34 -33 4 C-32.19175781 3.93941406 -31.38351562 3.87882813 -30.55078125 3.81640625 C-28.94783203 3.69072266 -28.94783203 3.69072266 -27.3125 3.5625 C-26.25675781 3.48128906 -25.20101563 3.40007812 -24.11328125 3.31640625 C-21.34418969 3.03498038 -18.71857084 2.57996178 -16 2 C-13.66822025 1.65596692 -11.33512959 1.32050798 -9 1 C-9 0.67 -9 0.34 -9 0 C-5.5657338 -0.85856655 -3.38317487 -0.97591583 0 0 Z " fill="#45DEA6" transform="translate(340,177)"/>
<path d="M0 0 C-4.24364963 4.24364963 -10.27823481 4.25503466 -15.97851562 4.2734375 C-17.19571289 4.26183594 -17.19571289 4.26183594 -18.4375 4.25 C-19.24509766 4.25773437 -20.05269531 4.26546875 -20.88476562 4.2734375 C-26.24181217 4.25617063 -30.85342519 3.4890205 -36 2 C-36 1.67 -36 1.34 -36 1 C-30.39 1 -24.78 1 -19 1 C-19 1.33 -19 1.66 -19 2 C-12.28619762 2.2685521 -6.64941606 -0.31663886 0 0 Z " fill="#45DAA5" transform="translate(418,312)"/>
<path d="M0 0 C0.66 0.99 1.32 1.98 2 3 C1.125 6.1875 1.125 6.1875 0 9 C-0.99 9 -1.98 9 -3 9 C-3.144375 9.763125 -3.28875 10.52625 -3.4375 11.3125 C-4 14 -4 14 -5 17 C-5.66 17.33 -6.32 17.66 -7 18 C-7.33 18.99 -7.66 19.98 -8 21 C-8.66 21 -9.32 21 -10 21 C-10 21.66 -10 22.32 -10 23 C-10.66 22.67 -11.32 22.34 -12 22 C-8 14.66666667 -4 7.33333333 0 0 Z " fill="#4DDBA8" transform="translate(238,218)"/>
<path d="M0 0 C8.28397934 0.16567959 14.87497274 4.16729573 22 8 C21.67 8.66 21.34 9.32 21 10 C20.01 9.67 19.02 9.34 18 9 C18 8.34 18 7.68 18 7 C16.35 7 14.7 7 13 7 C13 6.34 13 5.68 13 5 C11.35 5 9.7 5 8 5 C8 4.34 8 3.68 8 3 C5.03 3 2.06 3 -1 3 C-0.67 2.01 -0.34 1.02 0 0 Z " fill="#4DE1A7" transform="translate(159,84)"/>
<path d="M0 0 C4.45724247 1.4189423 6.99490298 3.61905528 10.25 6.9375 C11.12140625 7.81277344 11.9928125 8.68804687 12.890625 9.58984375 C15 12 15 12 16 15 C15.01 15.495 15.01 15.495 14 16 C13.34 15.01 12.68 14.02 12 13 C11.01 13.33 10.02 13.66 9 14 C8.67 11.69 8.34 9.38 8 7 C7.01 7 6.02 7 5 7 C3.3125 5.625 3.3125 5.625 2 4 C2 3.34 2 2.68 2 2 C1.34 2 0.68 2 0 2 C0 1.34 0 0.68 0 0 Z " fill="#3AD698" transform="translate(426,221)"/>
<path d="M0 0 C1 2 1 2 1 6 C-0.65 6 -2.3 6 -4 6 C-4.1546875 7.1446875 -4.1546875 7.1446875 -4.3125 8.3125 C-5.07370527 11.28812061 -5.9034959 11.9034959 -8 14 C-8.2165625 15.2684375 -8.2165625 15.2684375 -8.4375 16.5625 C-9 19 -9 19 -11.0625 20.3125 C-12.0215625 20.6528125 -12.0215625 20.6528125 -13 21 C-10.86357724 12.8815935 -6.27554803 5.53724826 0 0 Z " fill="#40DA9E" transform="translate(116,97)"/>
<path d="M0 0 C0.66 0.33 1.32 0.66 2 1 C0.02 4.63 -1.96 8.26 -4 12 C-4.66 10.68 -5.32 9.36 -6 8 C-6.66 7.67 -7.32 7.34 -8 7 C-8 5.35 -8 3.7 -8 2 C-7.236875 1.855625 -6.47375 1.71125 -5.6875 1.5625 C-2.91827092 1.0367406 -2.91827092 1.0367406 0 0 Z " fill="#29E3A0" transform="translate(282,216)"/>
<path d="M0 0 C4.35541251 4.35541251 4.80587183 13.96526167 5.19140625 19.9921875 C5.18820558 21.99580521 5.10530794 23.99914908 5 26 C4.67 25.34 4.34 24.68 4 24 C3.01 23.67 2.02 23.34 1 23 C1.01160156 22.09378906 1.02320313 21.18757813 1.03515625 20.25390625 C1.08588915 13.40496536 0.93601269 6.786092 0 0 Z " fill="#34DB9D" transform="translate(183,182)"/>
<path d="M0 0 C-5.91834068 2.80398781 -11.62869624 5.43968071 -18 7 C-18.639375 7.20625 -19.27875 7.4125 -19.9375 7.625 C-23.28625587 8.2338647 -26.60145822 8.05664236 -30 8 C-30 7.67 -30 7.34 -30 7 C-28.9378125 6.74605469 -27.875625 6.49210937 -26.78125 6.23046875 C-19.67421497 4.5074748 -12.79366619 2.74359596 -6 0 C-2.29698376 -1.14849188 -2.29698376 -1.14849188 0 0 Z " fill="#4AD69C" transform="translate(312,272)"/>
<path d="M0 0 C0.66 0 1.32 0 2 0 C3 3 3 3 1.6875 5.6875 C1.130625 6.450625 0.57375 7.21375 0 8 C-0.66 8 -1.32 8 -2 8 C-2 8.66 -2 9.32 -2 10 C-2.66 10 -3.32 10 -4 10 C-4 10.66 -4 11.32 -4 12 C-4.66 12 -5.32 12 -6 12 C-6 12.66 -6 13.32 -6 14 C-6.66 14 -7.32 14 -8 14 C-8 13.01 -8 12.02 -8 11 C-7.34 11 -6.68 11 -6 11 C-6 9.68 -6 8.36 -6 7 C-5.34 6.67 -4.68 6.34 -4 6 C-2.86649466 3.98330173 -2.86649466 3.98330173 -2 2 C-1.67 2.66 -1.34 3.32 -1 4 C-0.67 2.68 -0.34 1.36 0 0 Z " fill="#40E2A6" transform="translate(191,162)"/>
<path d="M0 0 C0.66 0.33 1.32 0.66 2 1 C0.07659354 7.98500239 -2.84872124 14.04651939 -7 20 C-7.33 20 -7.66 20 -8 20 C-8 18.02 -8 16.04 -8 14 C-7.01 14 -6.02 14 -5 14 C-5 12.68 -5 11.36 -5 10 C-4.34 10 -3.68 10 -3 10 C-2.814375 8.9171875 -2.814375 8.9171875 -2.625 7.8125 C-2.0095069 5.04278106 -1.11555626 2.6029646 0 0 Z " fill="#5FE4B2" transform="translate(446,279)"/>
<path d="M0 0 C4.28904235 1.5885342 6.32345526 4.43127368 9 8 C9 8.66 9 9.32 9 10 C11.475 10.99 11.475 10.99 14 12 C14 12.66 14 13.32 14 14 C14.66 14 15.32 14 16 14 C16 14.66 16 15.32 16 16 C13.5625 15.1875 13.5625 15.1875 11 14 C10.67 13.01 10.34 12.02 10 11 C7.99983534 9.79117904 7.99983534 9.79117904 6 9 C6 8.34 6 7.68 6 7 C5.34 7 4.68 7 4 7 C4 6.34 4 5.68 4 5 C3.34 5 2.68 5 2 5 C1.34 3.35 0.68 1.7 0 0 Z " fill="#51DBA7" transform="translate(143,361)"/>
<path d="M0 0 C0.33 0 0.66 0 1 0 C1.7809802 8.59078223 -1.41584256 16.82822361 -6 24 C-7.15941038 20.52176885 -6.70820884 18.54104422 -6 15 C-5.34 15 -4.68 15 -4 15 C-3.51787786 13.43840941 -3.03944127 11.87568072 -2.5625 10.3125 C-2.29566406 9.44238281 -2.02882812 8.57226562 -1.75390625 7.67578125 C-1.03655471 5.12974079 -0.482459 2.5996577 0 0 Z " fill="#4EDBA6" transform="translate(255,334)"/>
<path d="M0 0 C8.02100639 0.19520148 14.89724608 2.24384842 22 6 C22.33 6.66 22.66 7.32 23 8 C19.7 7.34 16.4 6.68 13 6 C13 5.34 13 4.68 13 4 C11.7315625 3.814375 11.7315625 3.814375 10.4375 3.625 C6.84763202 2.97229673 3.49175125 2.04752537 0 1 C0 0.67 0 0.34 0 0 Z " fill="#5EDFAA" transform="translate(404,213)"/>
<path d="M0 0 C0.33 0 0.66 0 1 0 C1.20674944 5.78898419 0.59162079 10.42932723 -1 16 C-2.65 16.33 -4.3 16.66 -6 17 C-6 17.66 -6 18.32 -6 19 C-7.32 19.33 -8.64 19.66 -10 20 C-9.67 19.34 -9.34 18.68 -9 18 C-8.34 18 -7.68 18 -7 18 C-6.71253906 17.41992188 -6.42507812 16.83984375 -6.12890625 16.2421875 C-5.42441036 14.84294654 -4.70539428 13.45081047 -3.96484375 12.0703125 C-1.83489997 8.03718701 -0.46089362 4.60893622 0 0 Z " fill="#4EDFA6" transform="translate(221,327)"/>
<path d="M0 0 C3.6054232 0.62900369 6.84919935 1.58837998 10.25 2.9375 C11.12140625 3.27652344 11.9928125 3.61554688 12.890625 3.96484375 C15 5 15 5 16 7 C15.31292969 6.91621094 14.62585938 6.83242187 13.91796875 6.74609375 C13.01691406 6.64425781 12.11585938 6.54242188 11.1875 6.4375 C10.29417969 6.33308594 9.40085937 6.22867188 8.48046875 6.12109375 C5.86624428 5.84341291 5.86624428 5.84341291 3 7 C2.01 4.69 1.02 2.38 0 0 Z " fill="#43DFA4" transform="translate(326,80)"/>
<path d="M0 0 C0.66 0.33 1.32 0.66 2 1 C-1.13347921 9.50765864 -1.13347921 9.50765864 -4.75 11.5625 C-5.4925 11.706875 -6.235 11.85125 -7 12 C-7 12.66 -7 13.32 -7 14 C-7.66 13.67 -8.32 13.34 -9 13 C-8.51789063 12.31292969 -8.03578125 11.62585938 -7.5390625 10.91796875 C-6.90742188 10.01691406 -6.27578125 9.11585938 -5.625 8.1875 C-4.99851563 7.29417969 -4.37203125 6.40085937 -3.7265625 5.48046875 C-2.46449761 3.66732122 -1.22541192 1.83811789 0 0 Z " fill="#4AE0A3" transform="translate(149,281)"/>
<path d="M0 0 C2.64 0.33 5.28 0.66 8 1 C4.65881918 4.57983659 2.26231859 6.89716734 -2.75 7.125 C-3.4925 7.08375 -4.235 7.0425 -5 7 C-4.34 5.68 -3.68 4.36 -3 3 C-2.34 3 -1.68 3 -1 3 C-0.67 2.01 -0.34 1.02 0 0 Z " fill="#26DD9B" transform="translate(421,305)"/>
<path d="M0 0 C0.66 1.32 1.32 2.64 2 4 C1.01 4.33 0.02 4.66 -1 5 C-1 5.99 -1 6.98 -1 8 C-1.66 8 -2.32 8 -3 8 C-3 9.32 -3 10.64 -3 12 C-3.66 12 -4.32 12 -5 12 C-5 12.66 -5 13.32 -5 14 C-5.99 14.33 -6.98 14.66 -8 15 C-6.62712658 11.30123909 -4.93644547 8.0485524 -2.875 4.6875 C-2.33617187 3.80449219 -1.79734375 2.92148438 -1.2421875 2.01171875 C-0.83226562 1.34785156 -0.42234375 0.68398437 0 0 Z " fill="#48DCA1" transform="translate(262,178)"/>
<path d="M0 0 C1.81100393 3.62200785 2.76841985 6.59054686 3.6875 10.5 C3.95949219 11.6240625 4.23148438 12.748125 4.51171875 13.90625 C4.9634571 16.7684642 4.97784414 18.32241337 4 21 C3.67 19.35 3.34 17.7 3 16 C2.34 16 1.68 16 1 16 C0.67 10.72 0.34 5.44 0 0 Z " fill="#54DCAC" transform="translate(196,237)"/>
<path d="M0 0 C0.33 0 0.66 0 1 0 C0.67 2.31 0.34 4.62 0 7 C-2.31 7 -4.62 7 -7 7 C-7 6.34 -7 5.68 -7 5 C-8.65 5 -10.3 5 -12 5 C-11.67 4.34 -11.34 3.68 -11 3 C-6.545 3.99 -6.545 3.99 -2 5 C-1.34 3.35 -0.68 1.7 0 0 Z " fill="#48DFA4" transform="translate(214,260)"/>
<path d="M0 0 C3.86902666 3.34962308 4.29547403 7.10071023 5 12 C5.13361545 14.36628645 5.10094731 16.62773818 5 19 C2.59723991 15.39585987 2.09059164 11.99286955 1.375 7.8125 C1.2409375 7.06291016 1.106875 6.31332031 0.96875 5.54101562 C0.63954581 3.69512072 0.31893502 1.84769691 0 0 Z " fill="#54DCA5" transform="translate(159,245)"/>
<path d="M0 0 C-2.34594595 7.37297297 -2.34594595 7.37297297 -4 10 C-4.99 10.33 -5.98 10.66 -7 11 C-6.67 7.7 -6.34 4.4 -6 1 C-3 0 -3 0 0 0 Z " fill="#42E0A8" transform="translate(258,261)"/>
<path d="M0 0 C0.33 0.99 0.66 1.98 1 3 C-0.3984375 5.69921875 -0.3984375 5.69921875 -2.375 8.6875 C-3.02210938 9.68136719 -3.66921875 10.67523438 -4.3359375 11.69921875 C-5.15964844 12.83810547 -5.15964844 12.83810547 -6 14 C-6.33 14 -6.66 14 -7 14 C-7.1875 11.125 -7.1875 11.125 -7 8 C-6.01 7.34 -5.02 6.68 -4 6 C-3.835 5.34 -3.67 4.68 -3.5 4 C-3 2 -3 2 0 0 Z " fill="#3CD99F" transform="translate(272,234)"/>
<path d="M0 0 C-1 3 -1 3 -4 5 C-4.99 5 -5.98 5 -7 5 C-7 5.66 -7 6.32 -7 7 C-9.31 7.33 -11.62 7.66 -14 8 C-4.57142857 0 -4.57142857 0 0 0 Z " fill="#4FDFA7" transform="translate(380,216)"/>
<path d="M0 0 C0.99 0.33 1.98 0.66 3 1 C4.12862175 6.36095333 4.09688221 11.55306686 4 17 C1.64019954 13.4602993 1.41399192 11.00893712 0.875 6.8125 C0.70742187 5.54019531 0.53984375 4.26789063 0.3671875 2.95703125 C0.24601563 1.98121094 0.12484375 1.00539062 0 0 Z " fill="#4EDAA1" transform="translate(152,213)"/>
<path d="M0 0 C3.17111827 3.74768523 5.11214485 7.36459607 4.8984375 12.38671875 C4.65477936 14.60400779 4.36191539 16.79916316 4 19 C3.67 19 3.34 19 3 19 C2.92652344 18.12988281 2.92652344 18.12988281 2.8515625 17.2421875 C2.40082036 12.53270926 1.56494752 8.48618288 0 4 C0 2.68 0 1.36 0 0 Z " fill="#49DDA7" transform="translate(444,240)"/>
<path d="M0 0 C1 4 1 4 -0.43359375 6.796875 C-1.09488281 7.77140625 -1.75617188 8.7459375 -2.4375 9.75 C-3.42556641 11.22726563 -3.42556641 11.22726563 -4.43359375 12.734375 C-4.95050781 13.48203125 -5.46742188 14.2296875 -6 15 C-6.66 14.67 -7.32 14.34 -8 14 C-5.36 9.38 -2.72 4.76 0 0 Z " fill="#58DBA8" transform="translate(253,193)"/>
<path d="M0 0 C0.33 0.99 0.66 1.98 1 3 C1.66 3 2.32 3 3 3 C3.53394179 4.4117783 4.05165104 5.82970244 4.5625 7.25 C4.85253906 8.03890625 5.14257812 8.8278125 5.44140625 9.640625 C6.04522837 12.19103452 5.8473932 13.55322229 5 16 C4.17988688 14.44148245 3.36923787 12.87798284 2.5625 11.3125 C2.11003906 10.44238281 1.65757812 9.57226562 1.19140625 8.67578125 C0.03309638 6.07433122 -0.6492032 3.82119683 -1 1 C-0.67 0.67 -0.34 0.34 0 0 Z " fill="#54DDA7" transform="translate(266,144)"/>
<path d="M0 0 C0.99 0.33 1.98 0.66 3 1 C3.22151549 2.79008467 3.42682213 4.58218162 3.625 6.375 C3.74101562 7.37273437 3.85703125 8.37046875 3.9765625 9.3984375 C3.98429688 10.25695312 3.99203125 11.11546875 4 12 C3.34 12.66 2.68 13.32 2 14 C0.66416101 9.15758367 -0.25328119 5.06562383 0 0 Z " fill="#4FE0A6" transform="translate(156,230)"/>
<path d="M0 0 C1.32 0.66 2.64 1.32 4 2 C3.38125 2.9075 2.7625 3.815 2.125 4.75 C0.54959616 7.15944116 -0.7575449 9.42554349 -2 12 C-2.05395478 10.37536158 -2.09277195 8.75021459 -2.125 7.125 C-2.14820313 6.22007812 -2.17140625 5.31515625 -2.1953125 4.3828125 C-2 2 -2 2 0 0 Z " fill="#47E1A4" transform="translate(171,306)"/>
<path d="M0 0 C0.5775 0.37125 1.155 0.7425 1.75 1.125 C-0.56 1.785 -2.87 2.445 -5.25 3.125 C-5.25 3.785 -5.25 4.445 -5.25 5.125 C-7.23 5.455 -9.21 5.785 -11.25 6.125 C-3.98076923 -1.54807692 -3.98076923 -1.54807692 0 0 Z " fill="#49DEA6" transform="translate(293.25,84.875)"/>
<path d="M0 0 C0.71542969 0.14308594 1.43085938 0.28617187 2.16796875 0.43359375 C3.56982422 0.71396484 3.56982422 0.71396484 5 1 C8.99414062 1.79882812 8.99414062 1.79882812 12.98828125 2.59765625 C13.98408203 2.79681641 13.98408203 2.79681641 15 3 C14.67 3.66 14.34 4.32 14 5 C12.54119891 4.85892253 11.08296449 4.71197585 9.625 4.5625 C8.40683594 4.44068359 8.40683594 4.44068359 7.1640625 4.31640625 C5 4 5 4 3 3 C3 2.34 3 1.68 3 1 C2.01 0.67 1.02 0.34 0 0 Z " fill="#45DCA5" transform="translate(172,383)"/>
<path d="M0 0 C3.66172475 0.62678171 6.8818995 1.64451846 10.3125 3.0625 C11.19550781 3.42472656 12.07851562 3.78695312 12.98828125 4.16015625 C13.65214844 4.43730469 14.31601563 4.71445313 15 5 C15 5.33 15 5.66 15 6 C8.84777564 5.56826496 5.18082051 4.34594658 0 1 C0 0.67 0 0.34 0 0 Z " fill="#3BD9A3" transform="translate(123,178)"/>
<path d="M0 0 C0.33 0 0.66 0 1 0 C1 2.31 1 4.62 1 7 C-0.98 7.99 -0.98 7.99 -3 9 C-3 9.66 -3 10.32 -3 11 C-3.66 11 -4.32 11 -5 11 C-3.77782954 6.95743617 -2.37245704 3.50711041 0 0 Z " fill="#40DCA2" transform="translate(268,167)"/>
<path d="M0 0 C0.99 0 1.98 0 3 0 C3 0.99 3 1.98 3 3 C2.01 3 1.02 3 0 3 C-0.33 4.32 -0.66 5.64 -1 7 C-2.98 7.33 -4.96 7.66 -7 8 C-6.67 7.01 -6.34 6.02 -6 5 C-5.360625 4.855625 -4.72125 4.71125 -4.0625 4.5625 C-1.79688294 4.19895007 -1.79688294 4.19895007 -0.75 1.9375 C-0.5025 1.298125 -0.255 0.65875 0 0 Z " fill="#33E1A3" transform="translate(219,378)"/>
<path d="M0 0 C0 0.33 0 0.66 0 1 C-5.94 2.65 -11.88 4.3 -18 6 C-18 5.34 -18 4.68 -18 4 C-16.68 4 -15.36 4 -14 4 C-14 3.34 -14 2.68 -14 2 C-9.07262981 0.02905192 -5.21979128 -0.1799928 0 0 Z " fill="#55DCAA" transform="translate(318,309)"/>
<path d="M0 0 C4.13937592 3.30015998 7.58662205 6.17324411 10 11 C9.34 11 8.68 11 8 11 C8 10.34 8 9.68 8 9 C7.01 8.67 6.02 8.34 5 8 C5 7.34 5 6.68 5 6 C2.525 5.01 2.525 5.01 0 4 C0 2.68 0 1.36 0 0 Z " fill="#51DBA6" transform="translate(348,91)"/>
<path d="M0 0 C0.66 0.33 1.32 0.66 2 1 C0.25 4.875 0.25 4.875 -2 6 C-2.33 6.99 -2.66 7.98 -3 9 C-3.66 9 -4.32 9 -5 9 C-5 9.66 -5 10.32 -5 11 C-5.66 10.67 -6.32 10.34 -7 10 C-6.21516341 8.51719804 -5.42190666 7.0388502 -4.625 5.5625 C-4.18414062 4.73878906 -3.74328125 3.91507813 -3.2890625 3.06640625 C-2 1 -2 1 0 0 Z " fill="#42DAA0" transform="translate(233,230)"/>
<path d="M0 0 C5.66153846 2.46153846 5.66153846 2.46153846 7.375 5.1875 C7.58125 5.785625 7.7875 6.38375 8 7 C7.01 7.495 7.01 7.495 6 8 C5.34 7.01 4.68 6.02 4 5 C3.01 5.33 2.02 5.66 1 6 C0.67 4.02 0.34 2.04 0 0 Z " fill="#2DE09D" transform="translate(434,229)"/>
<path d="M0 0 C0.66 0.33 1.32 0.66 2 1 C3.0283474 6.03890228 3.08970351 10.88689982 3 16 C2.67 16 2.34 16 2 16 C1.47222137 13.52212405 0.95249746 11.0430336 0.4375 8.5625 C0.28603516 7.85544922 0.13457031 7.14839844 -0.02148438 6.41992188 C-0.39144575 4.62173751 -0.7005656 2.81126406 -1 1 C-0.67 0.67 -0.34 0.34 0 0 Z " fill="#47D69F" transform="translate(149,197)"/>
<path d="M0 0 C6.11774896 -0.49940808 9.02495953 0.75099398 14 4 C13.67 4.66 13.34 5.32 13 6 C12.01 5.67 11.02 5.34 10 5 C10 4.34 10 3.68 10 3 C8.35 3 6.7 3 5 3 C5 2.34 5 1.68 5 1 C3.35 1 1.7 1 0 1 C0 0.67 0 0.34 0 0 Z " fill="#42DC9D" transform="translate(167,88)"/>
<path d="M0 0 C-0.33 1.32 -0.66 2.64 -1 4 C-2.98 4 -4.96 4 -7 4 C-7 4.66 -7 5.32 -7 6 C-8.32 5.67 -9.64 5.34 -11 5 C-9.54462432 4.16151196 -8.08559627 3.32936066 -6.625 2.5 C-5.81289062 2.0359375 -5.00078125 1.571875 -4.1640625 1.09375 C-2 0 -2 0 0 0 Z " fill="#63E3AE" transform="translate(133,87)"/>
<path d="M0 0 C-1.91197039 0.70045456 -3.82980435 1.384919 -5.75 2.0625 C-6.81734375 2.44535156 -7.8846875 2.82820313 -8.984375 3.22265625 C-11.92280042 3.98010011 -13.22348948 4.07151741 -16 3 C-5.49579832 -1.83193277 -5.49579832 -1.83193277 0 0 Z " fill="#5AD9A5" transform="translate(309,80)"/>
<path d="M0 0 C0.99 0 1.98 0 3 0 C3 0.66 3 1.32 3 2 C3.99 2.33 4.98 2.66 6 3 C6 3.66 6 4.32 6 5 C6.99 5.33 7.98 5.66 9 6 C8.67 6.99 8.34 7.98 8 9 C6.66079162 7.88200014 5.32877444 6.75538103 4 5.625 C2.88625 4.68527344 2.88625 4.68527344 1.75 3.7265625 C1.1725 3.15679687 0.595 2.58703125 0 2 C0 1.34 0 0.68 0 0 Z " fill="#50E0AA" transform="translate(356,295)"/>
<path d="M0 0 C2.52394612 3.12488567 4.39701907 6.31314387 6 10 C5.67 10.66 5.34 11.32 5 12 C4.34 10.68 3.68 9.36 3 8 C2.34 8 1.68 8 1 8 C0.67 5.36 0.34 2.72 0 0 Z " fill="#5CDDAE" transform="translate(194,107)"/>
<path d="M0 0 C0.66 0.33 1.32 0.66 2 1 C-1.19990508 3.74277578 -4.00499382 5.6302836 -8 7 C-8 6.01 -8 5.02 -8 4 C-7.01 4 -6.02 4 -5 4 C-5 3.34 -5 2.68 -5 2 C-2.625 0.9375 -2.625 0.9375 0 0 Z " fill="#4FD8A8" transform="translate(227,377)"/>
<path d="M0 0 C0.33 0.66 0.66 1.32 1 2 C1.99 1.67 2.98 1.34 4 1 C2.75023244 4.65316671 2.32901247 5.78065836 -1 8 C-1.04241723 5.66705225 -1.04092937 3.33297433 -1 1 C-0.67 0.67 -0.34 0.34 0 0 Z " fill="#3CE1A3" transform="translate(244,357)"/>
<path d="M0 0 C3.96 0 7.92 0 12 0 C12 0.33 12 0.66 12 1 C8.12315913 2.19287411 5.08378077 3 1 3 C0.67 2.01 0.34 1.02 0 0 Z " fill="#4BDFAA" transform="translate(287,315)"/>
<path d="M0 0 C1 3 1 3 0.22265625 4.82421875 C-0.8515625 6.54947917 -1.92578125 8.27473958 -3 10 C-3.33 10 -3.66 10 -4 10 C-4 8.02 -4 6.04 -4 4 C-3.34 4 -2.68 4 -2 4 C-2 3.01 -2 2.02 -2 1 C-1.34 0.67 -0.68 0.34 0 0 Z " fill="#4ADEA9" transform="translate(264,248)"/>
<path d="M0 0 C0.33 1.32 0.66 2.64 1 4 C0.34 4 -0.32 4 -1 4 C-0.67 5.32 -0.34 6.64 0 8 C-1.65 8.66 -3.3 9.32 -5 10 C-3.35 6.7 -1.7 3.4 0 0 Z " fill="#4CDDA3" transform="translate(225,241)"/>
<path d="M0 0 C3.3 0.33 6.6 0.66 10 1 C6.79619983 3.13586678 5.98060033 3.23132175 2.3125 3.125 C1.10013672 3.09792969 1.10013672 3.09792969 -0.13671875 3.0703125 C-1.05904297 3.03550781 -1.05904297 3.03550781 -2 3 C-1.34 2.67 -0.68 2.34 0 2 C0 1.34 0 0.68 0 0 Z " fill="#52D9A3" transform="translate(313,78)"/>
<path d="M0 0 C3.63 0 7.26 0 11 0 C10.01 1.485 10.01 1.485 9 3 C5.26512223 2.5020163 3.18762365 2.12508244 0 0 Z " fill="#13E390" transform="translate(191,353)"/>
<path d="M0 0 C0.66 0 1.32 0 2 0 C0.50902342 3.7952131 -1.75700849 5.61042731 -5 8 C-5 7.01 -5 6.02 -5 5 C-5.66 4.67 -6.32 4.34 -7 4 C-4.69 3.34 -2.38 2.68 0 2 C0 1.34 0 0.68 0 0 Z " fill="#2AE199" transform="translate(215,344)"/>
<path d="M0 0 C0.66 0 1.32 0 2 0 C3.125 5.75 3.125 5.75 2 8 C1.01 7.67 0.02 7.34 -1 7 C-0.67 4.69 -0.34 2.38 0 0 Z " fill="#31DC9A" transform="translate(139,295)"/>
<path d="M0 0 C0.66 0.33 1.32 0.66 2 1 C1.01 3.97 0.02 6.94 -1 10 C-1.66 10 -2.32 10 -3 10 C-2.39009109 6.44219804 -1.4216319 3.3171411 0 0 Z " fill="#59DEAA" transform="translate(446,279)"/>
<path d="M0 0 C1.0326802 2.78823655 1.04509293 3.8677274 0.0625 6.75 C-0.288125 7.4925 -0.63875 8.235 -1 9 C-1.99 9 -2.98 9 -4 9 C-2.80100302 5.9168649 -1.52299523 2.93720508 0 0 Z " fill="#55DFAA" transform="translate(219,251)"/>
<path d="M0 0 C1.65 0.33 3.3 0.66 5 1 C3.68 2.65 2.36 4.3 1 6 C0.01 5.67 -0.98 5.34 -2 5 C-1.34 5 -0.68 5 0 5 C0 3.35 0 1.7 0 0 Z " fill="#3EDFA4" transform="translate(347,166)"/>
<path d="M0 0 C1 4 1 4 -0.9375 7.25 C-1.618125 8.1575 -2.29875 9.065 -3 10 C-3.66 9.67 -4.32 9.34 -5 9 C-3.35 6.03 -1.7 3.06 0 0 Z " fill="#61DEAE" transform="translate(244,208)"/>
<path d="M0 0 C0.66 0 1.32 0 2 0 C2 0.66 2 1.32 2 2 C2.66 2 3.32 2 4 2 C4.625 4.375 4.625 4.375 5 7 C4.34 7.66 3.68 8.32 3 9 C2.01 6.03 1.02 3.06 0 0 Z " fill="#48DDA2" transform="translate(103,152)"/>
<path d="M0 0 C0.66 0 1.32 0 2 0 C2.33 1.32 2.66 2.64 3 4 C3.66 4 4.32 4 5 4 C5 5.65 5 7.3 5 9 C1.9083091 6.47043472 1.09068668 3.77545388 0 0 Z " fill="#53DFAE" transform="translate(136,349)"/>
<path d="M0 0 C-0.33 2.31 -0.66 4.62 -1 7 C-1.99 6.67 -2.98 6.34 -4 6 C-4 4.35 -4 2.7 -4 1 C-2 0 -2 0 0 0 Z " fill="#51E1AD" transform="translate(246,282)"/>
<path d="M0 0 C0.66 0.66 1.32 1.32 2 2 C0.68 4.31 -0.64 6.62 -2 9 C-3.04449911 5.86650268 -2.93423645 5.01031744 -2 2 C-1.34 2 -0.68 2 0 2 C0 1.34 0 0.68 0 0 Z " fill="#58DEAE" transform="translate(249,273)"/>
<path d="M0 0 C-5.75 3 -5.75 3 -8 3 C-8.33 2.01 -8.66 1.02 -9 0 C-5.62182575 -0.84454356 -3.32534757 -1.10844919 0 0 Z " fill="#61DFB2" transform="translate(340,177)"/>
<path d="" fill="#FFFFFF" transform="translate(0,0)"/>
<path d="" fill="#FFFFFF" transform="translate(0,0)"/>
<path d="" fill="#FFFFFF" transform="translate(0,0)"/>
<path d="" fill="#FFFFFF" transform="translate(0,0)"/>
<path d="" fill="#FFFFFF" transform="translate(0,0)"/>
<path d="" fill="#FFFFFF" transform="translate(0,0)"/>
<path d="" fill="#FFFFFF" transform="translate(0,0)"/>
<path d="" fill="#FFFFFF" transform="translate(0,0)"/>
<path d="" fill="#FFFFFF" transform="translate(0,0)"/>
<path d="" fill="#FFFFFF" transform="translate(0,0)"/>
<path d="" fill="#FFFFFF" transform="translate(0,0)"/>
<path d="" fill="#FFFFFF" transform="translate(0,0)"/>
<path d="" fill="#FFFFFF" transform="translate(0,0)"/>
<path d="" fill="#FFFFFF" transform="translate(0,0)"/>
<path d="" fill="#FFFFFF" transform="translate(0,0)"/>
<path d="" fill="#FFFFFF" transform="translate(0,0)"/>
<path d="" fill="#FFFFFF" transform="translate(0,0)"/>
<path d="" fill="#FFFFFF" transform="translate(0,0)"/>
<path d="" fill="#FFFFFF" transform="translate(0,0)"/>
<path d="" fill="#FFFFFF" transform="translate(0,0)"/>
<path d="" fill="#FFFFFF" transform="translate(0,0)"/>
<path d="" fill="#FFFFFF" transform="translate(0,0)"/>
<path d="" fill="#FFFFFF" transform="translate(0,0)"/>
<path d="" fill="#FFFFFF" transform="translate(0,0)"/>
<path d="" fill="#FFFFFF" transform="translate(0,0)"/>
<path d="" fill="#FFFFFF" transform="translate(0,0)"/>
<path d="" fill="#FFFFFF" transform="translate(0,0)"/>
<path d="" fill="#FFFFFF" transform="translate(0,0)"/>
<path d="" fill="#FFFFFF" transform="translate(0,0)"/>
<path d="" fill="#FFFFFF" transform="translate(0,0)"/>
<path d="" fill="#FFFFFF" transform="translate(0,0)"/>
<path d="" fill="#FFFFFF" transform="translate(0,0)"/>
<path d="" fill="#FFFFFF" transform="translate(0,0)"/>
<path d="" fill="#FFFFFF" transform="translate(0,0)"/>
<path d="" fill="#FFFFFF" transform="translate(0,0)"/>
<path d="" fill="#FFFFFF" transform="translate(0,0)"/>
<path d="" fill="#FFFFFF" transform="translate(0,0)"/>
<path d="" fill="#FFFFFF" transform="translate(0,0)"/>
<path d="" fill="#FFFFFF" transform="translate(0,0)"/>
<path d="" fill="#FFFFFF" transform="translate(0,0)"/>
<path d="" fill="#FFFFFF" transform="translate(0,0)"/>
<path d="" fill="#FFFFFF" transform="translate(0,0)"/>
<path d="" fill="#FFFFFF" transform="translate(0,0)"/>
<path d="" fill="#FFFFFF" transform="translate(0,0)"/>
<path d="" fill="#FFFFFF" transform="translate(0,0)"/>
<path d="" fill="#FFFFFF" transform="translate(0,0)"/>
<path d="" fill="#FFFFFF" transform="translate(0,0)"/>
<path d="" fill="#FFFFFF" transform="translate(0,0)"/>
<path d="" fill="#FFFFFF" transform="translate(0,0)"/>
<path d="" fill="#FFFFFF" transform="translate(0,0)"/>
<path d="" fill="#FFFFFF" transform="translate(0,0)"/>
<path d="" fill="#FFFFFF" transform="translate(0,0)"/>
<path d="" fill="#FFFFFF" transform="translate(0,0)"/>
<path d="" fill="#FFFFFF" transform="translate(0,0)"/>
<path d="" fill="#FFFFFF" transform="translate(0,0)"/>
<path d="" fill="#FFFFFF" transform="translate(0,0)"/>
<path d="" fill="#FFFFFF" transform="translate(0,0)"/>
<path d="" fill="#FFFFFF" transform="translate(0,0)"/>
<path d="" fill="#FFFFFF" transform="translate(0,0)"/>
<path d="" fill="#FFFFFF" transform="translate(0,0)"/>
<path d="" fill="#FFFFFF" transform="translate(0,0)"/>
<path d="" fill="#FFFFFF" transform="translate(0,0)"/>
<path d="" fill="#FFFFFF" transform="translate(0,0)"/>
<path d="" fill="#FFFFFF" transform="translate(0,0)"/>
<path d="" fill="#FFFFFF" transform="translate(0,0)"/>
<path d="" fill="#FFFFFF" transform="translate(0,0)"/>
<path d="" fill="#FFFFFF" transform="translate(0,0)"/>
<path d="" fill="#FFFFFF" transform="translate(0,0)"/>
<path d="" fill="#FFFFFF" transform="translate(0,0)"/>
</svg>
